<svg width="17" height="16" viewBox="0 0 17 16" fill="none" xmlns="http://www.w3.org/2000/svg">
<path fill-rule="evenodd" clip-rule="evenodd" d="M8.57379 0.081543C10.6906 0.081543 12.68 0.904554 14.1742 2.39953C17.2629 5.48821 17.2629 10.5132 14.1742 13.6019C12.6601 15.1168 10.6214 15.9184 8.55611 15.9184C7.43027 15.9184 6.29707 15.6804 5.2368 15.1897C4.9244 15.0645 4.63189 14.9466 4.4219 14.9466C4.18023 14.948 3.8553 15.06 3.54142 15.1683C2.89745 15.3894 2.09581 15.665 1.50268 15.074C0.911764 14.4824 1.18438 13.683 1.40395 13.0397C1.51226 12.7229 1.62352 12.3958 1.62352 12.1482C1.62352 11.9448 1.52552 11.6855 1.37521 11.3119C-0.00482094 8.33154 0.633252 4.73962 2.97408 2.40027C4.46832 0.90529 6.45695 0.081543 8.57379 0.081543ZM8.57453 1.18675C6.75241 1.18675 5.04081 1.89556 3.75509 3.18202C1.74067 5.19497 1.19249 8.28586 2.38979 10.8743C2.56221 11.3009 2.72872 11.7164 2.72872 12.1482C2.72872 12.5792 2.58063 13.0132 2.45021 13.3963C2.34264 13.7117 2.1798 14.1877 2.28443 14.2923C2.38685 14.3984 2.86577 14.2311 3.18186 14.1228C3.56131 13.9931 3.99161 13.8443 4.41822 13.8414C4.84556 13.8414 5.24859 14.0035 5.6752 14.1751C8.28865 15.3835 11.3795 14.8338 13.3932 12.8209C16.0501 10.1625 16.0501 5.8382 13.3932 3.18128C12.1068 1.89482 10.3959 1.18675 8.57453 1.18675ZM11.4826 7.56946C11.8893 7.56946 12.2194 7.89882 12.2194 8.30627C12.2194 8.71372 11.8893 9.04307 11.4826 9.04307C11.0759 9.04307 10.7429 8.71372 10.7429 8.30627C10.7429 7.89882 11.0693 7.56946 11.476 7.56946H11.4826ZM8.52892 7.56946C8.93564 7.56946 9.26572 7.89882 9.26572 8.30627C9.26572 8.71372 8.93564 9.04307 8.52892 9.04307C8.1222 9.04307 7.78917 8.71372 7.78917 8.30627C7.78917 7.89882 8.11484 7.56946 8.52229 7.56946H8.52892ZM5.57492 7.56946C5.98164 7.56946 6.31173 7.89882 6.31173 8.30627C6.31173 8.71372 5.98164 9.04307 5.57492 9.04307C5.16821 9.04307 4.83517 8.71372 4.83517 8.30627C4.83517 7.89882 5.16158 7.56946 5.56829 7.56946H5.57492Z" fill="#413E34"/>
</svg>
