<svg width="44" height="44" viewBox="0 0 44 44" fill="none" xmlns="http://www.w3.org/2000/svg">
<path opacity="0.1" fill-rule="evenodd" clip-rule="evenodd" d="M0 22C0 9.84974 9.84974 0 22 0C34.1503 0 44 9.84974 44 22C44 34.1503 34.1503 44 22 44C9.84974 44 0 34.1503 0 22Z" fill="#131523"/>
<path d="M30.5637 28.3594L31.5391 22H25.4375V17.875C25.4375 16.1348 26.2883 14.4375 29.0211 14.4375H31.7969V9.02344C31.7969 9.02344 29.2789 8.59375 26.8727 8.59375C21.8453 8.59375 18.5625 11.6402 18.5625 17.1531V22H12.9766V28.3594H18.5625V43.7336C19.684 43.9098 20.8313 44 22 44C23.1687 44 24.316 43.9098 25.4375 43.7336V28.3594H30.5637Z" fill="#336DFF"/>
</svg>
