<svg width="20" height="20" viewBox="0 0 20 20" fill="none" xmlns="http://www.w3.org/2000/svg">
<path d="M18 9.5C18 4.805 14.195 1 9.5 1C4.805 1 1 4.805 1 9.5C1 14.195 4.805 18 9.5 18" stroke="#7D848D" stroke-width="1.5" stroke-linecap="round" stroke-linejoin="round"/>
<path d="M17.27 17.27L19 19" stroke="#7D848D" stroke-width="1.5" stroke-linecap="round" stroke-linejoin="round"/>
<path d="M17.2678 13.7322C18.2441 14.7085 18.2441 16.2915 17.2678 17.2678C16.2915 18.2441 14.7085 18.2441 13.7322 17.2678C12.7559 16.2915 12.7559 14.7085 13.7322 13.7322C14.7085 12.7559 16.2915 12.7559 17.2678 13.7322" stroke="#7D848D" stroke-width="1.5" stroke-linecap="round" stroke-linejoin="round"/>
<path d="M1.88696 13.281H1.94496C4.77796 13.281 6.66696 13.119 6.66696 10.448C6.66696 7.615 9.49996 7.615 9.49996 5.726C9.49996 3.614 5.72196 3.837 5.72196 1.948V1.88" stroke="#7D848D" stroke-width="1.5" stroke-linecap="round" stroke-linejoin="round"/>
<path d="M17.9999 9.49995H14.9319C12.8269 9.49995 11.7099 7.01295 13.1079 5.43895L15.1389 3.15295" stroke="#7D848D" stroke-width="1.5" stroke-linecap="round" stroke-linejoin="round"/>
</svg>
