<svg width="25" height="24" viewBox="0 0 25 24" fill="none" xmlns="http://www.w3.org/2000/svg">
<path d="M5.29216 11.491C5.21868 12.887 5.30315 14.373 4.05592 15.3084C3.47543 15.7438 3.13379 16.427 3.13379 17.1527C3.13379 18.1508 3.91559 19 4.93379 19H19.3338C20.352 19 21.1338 18.1508 21.1338 17.1527C21.1338 16.427 20.7922 15.7438 20.2117 15.3084C18.9644 14.373 19.0489 12.887 18.9754 11.491C18.7839 7.85223 15.7776 5 12.1338 5C8.48996 5 5.48367 7.85222 5.29216 11.491Z" stroke="black" stroke-width="1.5" stroke-linecap="round" stroke-linejoin="round"/>
<path d="M10.6338 3.125C10.6338 3.95343 11.3054 5 12.1338 5C12.9622 5 13.6338 3.95343 13.6338 3.125C13.6338 2.29657 12.9622 2 12.1338 2C11.3054 2 10.6338 2.29657 10.6338 3.125Z" stroke="black" stroke-width="1.5"/>
<path d="M15.1338 19C15.1338 20.6569 13.7907 22 12.1338 22C10.4769 22 9.13379 20.6569 9.13379 19" stroke="black" stroke-width="1.5" stroke-linecap="round" stroke-linejoin="round"/>
</svg>
