<svg width="16" height="12" viewBox="0 0 16 12" fill="none" xmlns="http://www.w3.org/2000/svg">
<path fill-rule="evenodd" clip-rule="evenodd" d="M8.20511 0C11.2869 0.00223533 14.0542 2.16231 15.6085 5.77907C15.6696 5.9199 15.6696 6.07935 15.6085 6.22018C14.055 9.83769 11.2869 11.9978 8.20511 12H8.20063C5.11886 11.9978 2.35152 9.83769 0.797219 6.22018C0.736865 6.07935 0.736865 5.9199 0.797219 5.77907C2.35152 2.16231 5.1196 0.00223533 8.20063 0H8.20511ZM8.20287 1.11767C5.64267 1.11841 3.3075 2.93871 1.92159 5.99963C3.3075 9.06129 5.64193 10.8816 8.20287 10.8823C10.7638 10.8816 13.0982 9.06129 14.4841 5.99963C13.0982 2.93871 10.7638 1.11841 8.20287 1.11767ZM8.20265 3.08535C9.80985 3.08535 11.1175 4.39302 11.1175 6.00022C11.1175 7.60668 9.80985 8.9136 8.20265 8.9136C6.59544 8.9136 5.28852 7.60668 5.28852 6.00022C5.28852 4.39302 6.59544 3.08535 8.20265 3.08535ZM8.20265 4.20302C7.21165 4.20302 6.40619 5.00923 6.40619 6.00022C6.40619 6.99048 7.21165 7.79594 8.20265 7.79594C9.19364 7.79594 9.99985 6.99048 9.99985 6.00022C9.99985 5.00923 9.19364 4.20302 8.20265 4.20302Z" fill="#413E34"/>
</svg>
