<svg width="24" height="23" viewBox="0 0 24 23" fill="none" xmlns="http://www.w3.org/2000/svg">
<path d="M10.33 15.7811H4.0293" stroke="black" stroke-width="1.5" stroke-linecap="round" stroke-linejoin="round"/>
<path d="M13.1406 6.56282H19.4413" stroke="black" stroke-width="1.5" stroke-linecap="round" stroke-linejoin="round"/>
<path fill-rule="evenodd" clip-rule="evenodd" d="M8.72629 6.51128C8.72629 5.27899 7.66813 4.27979 6.36314 4.27979C5.05816 4.27979 4 5.27899 4 6.51128C4 7.74356 5.05816 8.74277 6.36314 8.74277C7.66813 8.74277 8.72629 7.74356 8.72629 6.51128Z" stroke="black" stroke-width="1.5" stroke-linecap="round" stroke-linejoin="round"/>
<path fill-rule="evenodd" clip-rule="evenodd" d="M19.9997 15.7439C19.9997 14.5117 18.9424 13.5125 17.6374 13.5125C16.3316 13.5125 15.2734 14.5117 15.2734 15.7439C15.2734 16.9762 16.3316 17.9754 17.6374 17.9754C18.9424 17.9754 19.9997 16.9762 19.9997 15.7439Z" stroke="black" stroke-width="1.5" stroke-linecap="round" stroke-linejoin="round"/>
</svg>
