<svg width="24" height="25" viewBox="0 0 24 25" fill="none" xmlns="http://www.w3.org/2000/svg">
<path d="M20.8382 5.10987C20.3274 4.59888 19.721 4.19352 19.0535 3.91696C18.3861 3.64039 17.6707 3.49805 16.9482 3.49805C16.2257 3.49805 15.5103 3.64039 14.8428 3.91696C14.1754 4.19352 13.5689 4.59888 13.0582 5.10987L11.9982 6.16987L10.9382 5.10987C9.90647 4.07818 8.5072 3.49858 7.04817 3.49858C5.58913 3.49858 4.18986 4.07818 3.15817 5.10987C2.12647 6.14156 1.54688 7.54084 1.54688 8.99987C1.54687 10.4589 2.12647 11.8582 3.15817 12.8899L4.21817 13.9499L11.9982 21.7299L19.7782 13.9499L20.8382 12.8899C21.3492 12.3791 21.7545 11.7727 22.0311 11.1052C22.3076 10.4378 22.45 9.72236 22.45 8.99987C22.45 8.27738 22.3076 7.56198 22.0311 6.89452C21.7545 6.22706 21.3492 5.62063 20.8382 5.10987V5.10987Z" stroke="red" stroke-width="2" stroke-linecap="round" stroke-linejoin="round"/>
</svg>
