<svg width="44" height="44" viewBox="0 0 44 44" fill="none" xmlns="http://www.w3.org/2000/svg">
<path opacity="0.1" fill-rule="evenodd" clip-rule="evenodd" d="M0 22C0 9.84974 9.84974 0 22 0C34.1503 0 44 9.84974 44 22C44 34.1503 34.1503 44 22 44C9.84974 44 0 34.1503 0 22Z" fill="#131523"/>
<path fill-rule="evenodd" clip-rule="evenodd" d="M22.002 10.2667C18.8154 10.2667 18.4155 10.2807 17.1639 10.3376C15.9148 10.3948 15.0622 10.5926 14.3161 10.8827C13.5444 11.1824 12.8898 11.5833 12.2376 12.2357C11.5849 12.8879 11.184 13.5426 10.8833 14.314C10.5924 15.0603 10.3944 15.9132 10.3382 17.1618C10.2822 18.4134 10.2676 18.8136 10.2676 22.0002C10.2676 25.1868 10.2818 25.5855 10.3385 26.8371C10.3959 28.0862 10.5937 28.9388 10.8836 29.6849C11.1835 30.4566 11.5844 31.1112 12.2368 31.7634C12.8888 32.4161 13.5434 32.8179 14.3146 33.1176C15.0612 33.4078 15.9141 33.6055 17.1629 33.6627C18.4145 33.7197 18.8142 33.7336 22.0005 33.7336C25.1874 33.7336 25.5861 33.7197 26.8377 33.6627C28.0868 33.6055 28.9404 33.4078 29.6869 33.1176C30.4584 32.8179 31.1121 32.4161 31.764 31.7634C32.4167 31.1112 32.8176 30.4566 33.1182 29.6851C33.4067 28.9388 33.6047 28.0859 33.6634 26.8373C33.7196 25.5857 33.7342 25.1868 33.7342 22.0002C33.7342 18.8136 33.7196 18.4137 33.6634 17.1621C33.6047 15.913 33.4067 15.0603 33.1182 14.3143C32.8176 13.5426 32.4167 12.8879 31.764 12.2357C31.1113 11.5831 30.4587 11.1822 29.6862 10.8827C28.9382 10.5926 28.0851 10.3948 26.836 10.3376C25.5844 10.2807 25.1859 10.2667 21.9983 10.2667H22.002ZM20.9494 12.3812C21.2618 12.3807 21.6104 12.3812 22.002 12.3812C25.1348 12.3812 25.5061 12.3924 26.7433 12.4486C27.8873 12.5009 28.5082 12.6921 28.9218 12.8527C29.4693 13.0654 29.8597 13.3196 30.2701 13.7303C30.6808 14.1409 30.935 14.532 31.1482 15.0796C31.3088 15.4927 31.5002 16.1136 31.5523 17.2576C31.6085 18.4945 31.6207 18.8661 31.6207 21.9975C31.6207 25.1288 31.6085 25.5004 31.5523 26.7373C31.4999 27.8813 31.3088 28.5022 31.1482 28.9153C30.9355 29.4629 30.6808 29.8528 30.2701 30.2632C29.8595 30.6739 29.4696 30.9281 28.9218 31.1408C28.5086 31.3021 27.8873 31.4928 26.7433 31.5451C25.5064 31.6013 25.1348 31.6135 22.002 31.6135C18.8689 31.6135 18.4976 31.6013 17.2607 31.5451C16.1167 31.4923 15.4958 31.3011 15.0819 31.1405C14.5343 30.9278 14.1432 30.6736 13.7326 30.2629C13.3219 29.8523 13.0677 29.4621 12.8545 28.9143C12.6939 28.5012 12.5025 27.8803 12.4504 26.7363C12.3942 25.4994 12.383 25.1278 12.383 21.9945C12.383 18.8612 12.3942 18.4916 12.4504 17.2547C12.5028 16.1107 12.6939 15.4898 12.8545 15.0762C13.0672 14.5286 13.3219 14.1375 13.7326 13.7268C14.1432 13.3162 14.5343 13.0619 15.0819 12.8488C15.4955 12.6874 16.1167 12.4968 17.2607 12.4442C18.3431 12.3953 18.7625 12.3807 20.9494 12.3782V12.3812ZM28.2652 14.3294C27.4878 14.3294 26.8572 14.9593 26.8572 15.7369C26.8572 16.5143 27.4878 17.1449 28.2652 17.1449C29.0425 17.1449 29.6732 16.5143 29.6732 15.7369C29.6732 14.9596 29.0425 14.3294 28.2652 14.3294ZM22.002 15.9745C18.6744 15.9745 15.9764 18.6725 15.9764 22.0001C15.9764 25.3278 18.6744 28.0245 22.002 28.0245C25.3297 28.0245 28.0267 25.3278 28.0267 22.0001C28.0267 18.6725 25.3297 15.9745 22.002 15.9745ZM22.002 18.089C24.1619 18.089 25.9131 19.84 25.9131 22.0001C25.9131 24.1601 24.1619 25.9113 22.002 25.9113C19.8418 25.9113 18.0908 24.1601 18.0908 22.0001C18.0908 19.84 19.8418 18.089 22.002 18.089Z" fill="#131523"/>
</svg>
