<svg width="44" height="44" viewBox="0 0 44 44" fill="none" xmlns="http://www.w3.org/2000/svg">
<path opacity="0.1" fill-rule="evenodd" clip-rule="evenodd" d="M0 22C0 9.84974 9.84974 0 22 0C34.1503 0 44 9.84974 44 22C44 34.1503 34.1503 44 22 44C9.84974 44 0 34.1503 0 22Z" fill="#131523"/>
<path fill-rule="evenodd" clip-rule="evenodd" d="M31.169 14.4369C32.1788 14.714 32.974 15.5304 33.2438 16.5671C33.7342 18.4461 33.7342 22.3667 33.7342 22.3667C33.7342 22.3667 33.7342 26.2871 33.2438 28.1662C32.974 29.203 32.1788 30.0194 31.169 30.2966C29.3392 30.8 22.0009 30.8 22.0009 30.8C22.0009 30.8 14.6626 30.8 12.8326 30.2966C11.8229 30.0194 11.0277 29.203 10.7578 28.1662C10.2676 26.2871 10.2676 22.3667 10.2676 22.3667C10.2676 22.3667 10.2676 18.4461 10.7578 16.5671C11.0277 15.5304 11.8229 14.714 12.8326 14.4369C14.6626 13.9333 22.0009 13.9333 22.0009 13.9333C22.0009 13.9333 29.3392 13.9333 31.169 14.4369ZM19.8009 19.0666V26.3999L25.6676 22.7334L19.8009 19.0666Z" fill="#F0142F"/>
</svg>
